# xmcd
#
# Track frame offsets: 
#        182
#        17737
#        34337
#        54937
#        73942
#        90960
#        107057
#        124290
#        139290
#        160937
#
# Disc length: 2643 seconds
#
# Revision: 5
# Processed by: cddbd v1.5.1PL0 Copyright (c) Steve Scherf et al.
# Submitted via: ExactAudioCopy v0.95a5
#
DISCID=870a510a
DTITLE=Linear - Linear
DYEAR=1990
DGENRE=Rock
TTITLE0=Sending All My Love
TTITLE1=Something Going On
TTITLE2=Heartache
TTITLE3=You're My Lady
TTITLE4=Dream About Me
TTITLE5=Lies
TTITLE6=Don't You Come Cryin'
TTITLE7=I Never Felt This Way
TTITLE8=Still in Love
TTITLE9=Sending All My Love [1990 Club Remix]
EXTD=more info YEAR: 1990
EXTT0=
EXTT1=
EXTT2=
EXTT3=
EXTT4=
EXTT5=
EXTT6=
EXTT7=
EXTT8=
EXTT9=
PLAYORDER=
